<svg width="2065" height="1773" xmlns="http://www.w3.org/2000/svg" xmlns:xlink="http://www.w3.org/1999/xlink" xml:space="preserve" overflow="hidden"><defs><clipPath id="clip0"><rect x="1070" y="351" width="2065" height="1773"/></clipPath><clipPath id="clip1"><rect x="2005" y="1474" width="641" height="651"/></clipPath><clipPath id="clip2"><rect x="2005" y="1474" width="641" height="651"/></clipPath><clipPath id="clip3"><rect x="1356" y="991" width="733" height="651"/></clipPath><clipPath id="clip4"><rect x="1356" y="991" width="733" height="651"/></clipPath></defs><g clip-path="url(#clip0)" transform="translate(-1070 -351)"><path d="M0 0 0.000360892 1077.07" stroke="#E07A5F" stroke-width="201.667" stroke-miterlimit="8" fill="none" fill-rule="evenodd" transform="matrix(1 0 0 -1 2286 1638.07)"/><path d="M2546 1836 2848.82 1836" stroke="#E07A5F" stroke-width="201.667" stroke-miterlimit="8" fill="none" fill-rule="evenodd"/><g clip-path="url(#clip1)"><g clip-path="url(#clip2)"><g><path d="M645.412 227.583C665.985 233.871 685.702 242.083 704.394 252.048L853.151 162.571 932.405 241.826 842.971 390.537C852.936 409.227 861.148 428.945 867.435 449.518L1035.83 491.435 1035.83 603.538 867.435 645.454C861.147 666.027 852.935 685.744 842.971 704.436L932.405 853.193 853.151 932.451 704.44 843.013C685.749 852.978 666.031 861.19 645.458 867.477L603.542 1035.87 491.438 1035.87 449.522 867.477C428.949 861.189 409.232 852.977 390.54 843.013L241.784 932.451 162.529 853.193 251.964 704.482C241.998 685.791 233.786 666.073 227.499 645.5L59.1523 603.499 59.1523 491.395 227.545 449.479C233.833 428.906 242.045 409.189 252.01 390.498L162.575 241.741 241.829 162.486 390.586 251.921C409.277 241.998 428.995 233.743 449.568 227.456L491.484 59.0638 603.587 59.0638ZM547.47 354.396C440.841 354.396 354.396 440.836 354.396 547.47 354.396 654.099 440.836 740.544 547.47 740.544 654.099 740.544 740.544 654.104 740.544 547.47 740.544 440.841 654.104 354.396 547.47 354.396Z" fill="#E07A5F" fill-rule="evenodd" transform="matrix(1 0 0 1.00034 2005 1028.69)"/></g></g></g><path d="M2657 1836C2451.55 1836 2285 1669.45 2285 1464" stroke="#E07A5F" stroke-width="201.667" stroke-miterlimit="8" fill="none" fill-rule="evenodd"/><g><g><g><path d="M447.974 254.024C427.028 254.027 407.429 264.348 395.579 281.62L239.945 551.181 239.945 551.187C230.913 570.085 231.774 592.219 242.243 610.359 252.848 628.684 271.884 640.525 293.008 641.936L602.931 641.936C624.058 640.528 643.097 628.687 653.702 610.359 664.175 592.219 665.035 570.08 656 551.181L500.702 282.202C488.917 264.612 469.142 254.046 447.969 254.026Z" fill="#E07A5F" transform="matrix(6.12365e-17 1.00007 -1 6.12323e-17 3353.06 1388.23)"/></g></g></g><g><g><g><path d="M447.974 254.024C427.028 254.027 407.429 264.348 395.579 281.62L239.945 551.181 239.945 551.187C230.913 570.085 231.774 592.219 242.243 610.359 252.848 628.684 271.884 640.525 293.008 641.936L602.931 641.936C624.058 640.528 643.097 628.687 653.702 610.359 664.175 592.219 665.035 570.08 656 551.181L500.702 282.202C488.917 264.612 469.142 254.046 447.969 254.026Z" fill="#E07A5F" transform="matrix(1.00007 0 0 1 1833.23 132.935)"/></g></g></g><path d="M0 0 0.000360892 1429.46" stroke="#E07A5F" stroke-width="201.667" stroke-linecap="round" stroke-miterlimit="8" fill="none" fill-rule="evenodd" transform="matrix(1 0 0 -1 1298 1964.46)"/><path d="M1770 1562 1770 1913.72" stroke="#E07A5F" stroke-width="201.667" stroke-miterlimit="8" fill="none" fill-rule="evenodd"/><g clip-path="url(#clip3)"><g clip-path="url(#clip4)"><g><path d="M645.174 227.499C665.74 233.785 685.45 241.994 704.134 251.955L852.836 162.511 932.061 241.736 842.66 390.393C852.622 409.077 860.831 428.787 867.115 449.353L1035.45 491.253 1035.45 603.316 867.115 645.216C860.83 665.782 852.621 685.492 842.66 704.176L932.061 852.878 852.836 932.107 704.18 842.702C685.496 852.664 665.785 860.873 645.22 867.157L603.319 1035.49 491.257 1035.49 449.356 867.157C428.791 860.872 409.081 852.663 390.396 842.702L241.695 932.107 162.469 852.878 251.871 704.222C241.909 685.538 233.7 665.827 227.415 645.262L59.1305 603.276 59.1305 491.214 227.461 449.313C233.746 428.748 241.955 409.038 251.917 390.354L162.515 241.652 241.74 162.426 390.442 251.828C409.126 241.909 428.837 233.657 449.402 227.373L491.303 59.042 603.365 59.042ZM547.268 354.265C440.678 354.265 354.265 440.673 354.265 547.268 354.265 653.858 440.673 740.271 547.268 740.271 653.858 740.271 740.271 653.863 740.271 547.268 740.271 440.678 653.863 354.265 547.268 354.265Z" fill="#E07A5F" fill-rule="evenodd" transform="matrix(-1 1.22465e-16 -1.22551e-16 -1.00071 2088.99 2086.31)"/></g></g></g><path d="M1298.01 1574.07C1299.07 1444.84 1404.7 1340.94 1533.93 1342.01 1661.12 1343.06 1764.18 1445.52 1765.98 1572.7" stroke="#E07A5F" stroke-width="201.667" stroke-miterlimit="8" fill="none" fill-rule="evenodd"/><g><g><g><path d="M447.974 254.024C427.028 254.027 407.429 264.348 395.579 281.62L239.945 551.181 239.945 551.187C230.913 570.085 231.774 592.219 242.243 610.359 252.848 628.684 271.884 640.525 293.008 641.936L602.931 641.936C624.058 640.528 643.097 628.687 653.702 610.359 664.175 592.219 665.035 570.08 656 551.181L500.702 282.202C488.917 264.612 469.142 254.046 447.969 254.026Z" fill="#E07A5F" transform="matrix(-1.00007 1.22473e-16 -1.22465e-16 -1 2217.77 2330.06)"/></g></g></g><g><g><g><path d="M447.974 254.024C427.028 254.027 407.429 264.348 395.579 281.62L239.945 551.181 239.945 551.187C230.913 570.085 231.774 592.219 242.243 610.359 252.848 628.684 271.884 640.525 293.008 641.936L602.931 641.936C624.058 640.528 643.097 628.687 653.702 610.359 664.175 592.219 665.035 570.08 656 551.181L500.702 282.202C488.917 264.612 469.142 254.046 447.969 254.026Z" fill="#E07A5F" transform="matrix(1.00007 0 0 1 849.233 137.935)"/></g></g></g></g></svg>