<?xml version="1.0" encoding="UTF-8"?>
<svg width="1200pt" height="1200pt" version="1.1" viewBox="0 0 1200 1200" xmlns="http://www.w3.org/2000/svg">
 <path d="m329.9 286.45v96.984c0 1.5469 0.32812 2.9531 0.84375 4.2656 0.98438 105.14 86.719 190.36 192.1 190.36 105.98 0 192.19-86.203 192.19-192.19 0-1.4062-0.375-2.6719-0.79688-3.8906v-78.422l48.891-37.031v112.69c-15.938 7.4062-27 29.859-27 58.266 0 34.828 16.547 61.125 38.438 61.125 21.938 0 38.438-26.297 38.438-61.125 0-27.75-10.547-49.828-25.922-57.75l0.09375-131.34 17.062-12.938c3.2344-2.4375 5.0156-6.375 4.7344-10.453s-2.625-7.6875-6.1875-9.6562l-255.94-140.16c-3.2812-1.8281-7.2656-1.9688-10.688-0.42188l-278.44 125.44c-3.7031 1.6875-6.3281 5.1094-6.9375 9.1406s0.89062 8.1094 3.9375 10.781zm444.71 188.21c-4.9688 0-14.438-14.438-14.438-37.125 0-20.203 7.5469-33.797 12.656-36.562 0.79688 0.14062 1.5 0.46875 2.3438 0.46875 0.5625 0 1.0312-0.23438 1.5938-0.32812 5.1562 3.1875 12.328 16.641 12.328 36.375 0 22.688-9.5156 37.172-14.484 37.172zm-348.28-103.22h-72.422v-63.844zm96.562 182.63c-89.531 0-162.71-70.359-167.68-158.63h98.391l57.047 50.297c2.25 1.9688 5.1094 3 7.9219 3 2.5312 0 5.1094-0.79688 7.2656-2.4375l67.172-50.859h97.641c-5.0625 88.312-78.281 158.63-167.76 158.63zm167.39-182.63h-65.672l65.672-49.688zm-149.72-272.34 234.37 128.39-255.84 193.78-234.56-206.81z"/>
 <path d="m800.11 739.82c-2.1094 0-4.1719 0.23438-6.2344 0.32812-32.062-47.344-75.234-84.375-124.82-108.66-0.09375-0.046875-0.09375-0.09375-0.1875-0.14062-0.046876-0.046875-0.09375 0-0.1875-0.046875-43.125-21-91.078-32.484-140.81-32.484-50.953 0-99.188 12-142.03 33.188-0.14062 0.09375-0.32812 0.09375-0.42188 0.1875-0.046875 0.046875-0.046875 0.09375-0.09375 0.09375-105.8 52.641-178.69 161.81-178.69 287.76 0 2.8125 1.125 5.25 2.7188 7.3125-0.84375 1.0312-1.5938 2.2031-2.0625 3.5156-2.1562 6.2812 1.1719 13.078 7.4531 15.234l332.81 114.56c1.2656 0.42187 2.5781 0.65625 3.8906 0.65625 1.6875 0 3.375-0.375 4.9219-1.0781l74.672-33.797c33 59.438 96.375 99.797 169.03 99.797 106.55 0 193.22-86.672 193.22-193.22 0.046876-106.55-86.625-193.22-193.18-193.22zm-153.37-92.156c-13.594 21.562-50.156 68.578-110.44 68.578-60.703 0-106.97-47.156-125.44-69.375 35.906-15.422 75.469-24.047 117-24.047 41.719 0 81.984 8.7656 118.88 24.844zm-258.14 9.9375c16.922 21.656 66.141 76.125 135.71 81.938v287.76l-295.26-101.62c0.9375-1.6875 1.5938-3.5625 1.5938-5.625 0.046875-113.58 64.125-212.44 157.97-262.45zm162.24 378.84-2.5312-0.89062v-296.02c67.359-5.7656 106.27-58.172 120.28-81.375 38.016 20.391 71.578 49.125 98.016 84.797-90.609 15.938-159.71 95.016-159.71 190.13 0 25.359 5.0625 49.547 13.969 71.719zm249.28 65.859c-93.328 0-169.26-75.938-169.26-169.22 0-93.328 75.938-169.26 169.26-169.26 93.328 0 169.22 75.938 169.22 169.26 0 93.281-75.891 169.22-169.22 169.22z"/>
 <path d="m853.92 868.6-70.547 105.84-40.641-25.969c-5.5781-3.5625-12.984-1.9219-16.594 3.6562-3.5625 5.5781-1.9219 13.031 3.6562 16.594l50.531 32.297c2.0156 1.2656 4.2188 1.875 6.4688 1.875 3.8906 0 7.6875-1.875 9.9844-5.3438l77.062-115.64c3.6562-5.5312 2.2031-12.984-3.3281-16.641-5.4844-3.7031-12.938-2.2031-16.594 3.3281z"/>
</svg>
