<?xml version="1.0" encoding="UTF-8"?>
<svg width="1200pt" height="1200pt" version="1.1" viewBox="0 0 1200 1200" xmlns="http://www.w3.org/2000/svg">
 <path d="m1031.2 176.16h-862.5c-12.43 0.015626-24.344 4.957-33.133 13.746-8.7852 8.7891-13.73 20.703-13.742 33.129v749.21c0.011719 12.426 4.957 24.344 13.742 33.129 8.7891 8.7891 20.703 13.734 33.133 13.746h749.03v0.40234h18.75v-0.40234h94.719c12.43-0.011718 24.344-4.957 33.133-13.746 8.7852-8.7852 13.73-20.703 13.742-33.129v-749.21c-0.011719-12.426-4.957-24.34-13.742-33.129-8.7891-8.7891-20.703-13.73-33.133-13.746zm28.125 46.875v101.44h-48.449v-20.25l-34.141-20.836v-0.019531l-12.844-7.8203-9.4844 3.25v-83.891h76.793c7.457 0.011719 14.605 2.9766 19.879 8.25 5.2734 5.2695 8.2383 12.422 8.2461 19.875zm-48.449 205.74v-85.547h48.449v419.88h-31.383v-334.33zm-97.539 252.43v35.91c-5.4492 0.83984-10.418 3.5859-14.027 7.75-3.6055 4.168-5.6133 9.4805-5.668 14.988v117.5c0.007813 6.2305 2.4844 12.207 6.8906 16.613s10.379 6.8867 16.613 6.8984h23.703c16.129-0.023438 31.594-6.4414 42.996-17.848 11.406-11.406 17.82-26.871 17.84-43v-80.164c-0.007813-6.2305-2.4844-12.207-6.8906-16.613s-10.379-6.8867-16.613-6.8984h-1.4453v-411l15.391 9.3906v132.79h17.066v370.94c-0.98047 20.828-10.164 40.426-25.543 54.508-15.379 14.086-35.707 21.512-56.543 20.656-24.797 0.30469-48.473-10.293-64.766-28.988-9.1836-10.723-14.965-23.934-16.605-37.957h25.109v-18.75h-25.027l0.003906-0.089844 5.1836-25.93 19.93-0.19922-0.18359-18.75-15.992 0.16016 4.5508-22.773h11.535v-18.75h-7.7891l4.7109-23.582h3.0742l0.003906-15.387 3.1875-15.945v-219.16h29.168v-131.34l10.137-3.4766-0.003907 368.5zm-0.94141 126.77h70.543v12.047h-0.003906c-0.011719 11.16-4.4492 21.859-12.34 29.754-7.8906 7.8906-18.59 12.328-29.746 12.344h-23.703c-2.625-0.011719-4.75-2.1367-4.7539-4.7617zm0-32.812h70.312v14.062h-70.312zm70.543-18.75h-70.547v-16.555c0.003906-2.625 2.1289-4.75 4.7539-4.7617h61.039-0.003906c2.625 0.011719 4.75 2.1367 4.7539 4.7617zm-264.82 66.758v-96.395l52.02 32.02v96.383zm52.02-141.74-52.02-32.012v-42.398l52.02 32.004zm0-119.75-52.02-32.027v-42.398l52.02 32.02zm0-119.77-52.02-32.008v-42.406l52.02 32.008zm-70.77-171.94v563.67l35.387 21.77v144.96l-109.98 0.003906v-134.33l35.387 21.777v-563.67l-35.387-21.77v-107.47h109.98v96.832zm-509.93 497.79h-48.863v-419.46h112.44l-18.324 64.125-0.28516 72.805-25.188-0.003906v44.566l34.605 18.309c-46.578 75.59-64.559 147.48-54.387 219.66zm304.42 0h-36.047c10.176-72.168-7.8125-144.06-54.395-219.65l34.605-18.309v-44.57h-30.43v-70.223l-19.273-66.703h105.54zm-218.98-165.45-30.512-17.035c6.2031-11.801 12.977-23.664 20.68-35.652l5.5117-8.5859-42.582-22.523v-14.539h82.691v31.605l-2.793 4.0664v-0.003906c-12.41 20.117-23.434 41.055-32.996 62.668zm61.703-98.34h82.691v14.539l-42.582 22.523 5.5117 8.5859c7.7031 11.992 14.477 23.855 20.68 35.656l-30.555 17.055v0.003906c-9.625-21.762-20.727-42.844-33.227-63.094l-2.5195-3.6641zm52.258-87.633v25.848h0.003906c-14.324-18.129-35.488-29.555-58.504-31.578v-16.523 0.003906c10.07-2.7109 18.43-9.7344 22.836-19.188 4.4023-9.4531 4.4023-20.371 0-29.824-4.4062-9.4531-12.766-16.477-22.836-19.184v-32.602h22.613zm-67.879-73.113h0.003907c4.4453 0 8.707 1.7656 11.852 4.9102 3.1445 3.1406 4.9102 7.4062 4.9102 11.852 0 4.4414-1.7617 8.707-4.9062 11.852-3.1406 3.1445-7.4023 4.9102-11.848 4.9141-4.4453 0-8.7109-1.7656-11.855-4.9062-3.1445-3.1406-4.9102-7.4023-4.9141-11.848 0.003906-4.4453 1.7695-8.707 4.9102-11.852 3.1445-3.1445 7.4062-4.9141 11.852-4.9219zm2.6172 206.63 0.023438-0.035156c48.199 78.66 67.465 151.61 57.727 217.93l-115.43 0.003907c-9.7656-66.395 9.5078-139.38 57.68-217.89zm54.172 236.64 0.003906 0.003907c-5.6953 24-15.141 46.949-27.988 68.004-3.457 5.6211-5.3398 12.07-5.4492 18.668-0.10547 6.5977 1.5625 13.102 4.8359 18.832 3.1602 5.6797 7.793 10.406 13.406 13.68 5.6172 3.2734 12.012 4.9727 18.512 4.9258 13.32-0.089844 25.582-7.2812 32.172-18.859 19.254-32.684 33.211-68.203 41.359-105.25h39.262v213.87h-157.28v-213.87zm134.86-591.59h93.41v95.93l-35.387-21.77v563.65l35.387 21.777v145.88h-93.41zm76.777 627.34-0.003906-41.945 52.02 32.008v41.969zm0-128.38v-33.336l52.02 32.023v33.324zm0-272.86 52.02 32.02v33.32l-52.02-32.004zm52.02 151.77v33.332l-52.02-32.016-0.003906-33.324zm-472.71-377.88h325.16v134.64l-110.96 0.003907-15.891-55.004-92.918-0.003906-16.023 56.062v-1.0547h-117.5v-106.52c0.007812-7.4531 2.9727-14.605 8.2461-19.875 5.2734-5.2734 12.422-8.2383 19.879-8.25zm-28.125 777.34v-185.74h52.078c8.1445 37.043 22.102 72.566 41.352 105.25 6.5859 11.578 18.848 18.77 32.172 18.859 6.5 0.046875 12.895-1.6523 18.512-4.9258 5.6172-3.2734 10.25-7.9961 13.414-13.68 3.2695-5.7305 4.9414-12.238 4.8281-18.836-0.10938-6.5977-1.9961-13.047-5.4609-18.664-12.844-21.055-22.289-44.008-27.988-68.004h48.348v213.87h-149.13c-7.457-0.007812-14.605-2.9727-19.879-8.2461-5.2734-5.2734-8.2383-12.422-8.2461-19.879zm612.93 28.125v-133.43l35.387 21.77v-563.65l-35.387-21.777v-108.38h182.16v90.312l-22.32 7.6484v0.003906l-28.887 9.8984v126l-29.168 0.003906 0.18359 236.06-28.086 139.66h-0.003907c-4.2109 25.98 3.375 52.488 20.691 72.309 17.684 20.426 42.723 33.035 69.664 35.086v88.492zm277.7 0-94.719 0.003906v-88.883c24.109-1.2773 46.871-11.531 63.801-28.75 16.926-17.219 26.793-40.152 27.66-64.281v-36.605h31.383v190.39c-0.007812 7.457-2.9727 14.605-8.2461 19.879-5.2734 5.2734-12.422 8.2383-19.879 8.2461z"/>
</svg>
