<svg width="2064" height="1603" xmlns="http://www.w3.org/2000/svg" xmlns:xlink="http://www.w3.org/1999/xlink" xml:space="preserve" overflow="hidden"><defs><clipPath id="clip0"><rect x="1580" y="260" width="2064" height="1603"/></clipPath><clipPath id="clip1"><rect x="2514" y="1214" width="641" height="650"/></clipPath><clipPath id="clip2"><rect x="2514" y="1214" width="641" height="650"/></clipPath><clipPath id="clip3"><rect x="1864" y="731" width="735" height="650"/></clipPath><clipPath id="clip4"><rect x="1864" y="731" width="734" height="650"/></clipPath></defs><g clip-path="url(#clip0)" transform="translate(-1580 -260)"><path d="M2795.5 1377.85 2794 562" stroke="#E07A5F" stroke-width="201.667" stroke-linecap="round" stroke-miterlimit="8" fill="none" fill-rule="evenodd"/><path d="M3056 1576 3358.82 1576" stroke="#E07A5F" stroke-width="201.667" stroke-miterlimit="8" fill="none" fill-rule="evenodd"/><g clip-path="url(#clip1)"><g clip-path="url(#clip2)"><g><path d="M644.406 227.228C664.947 233.506 684.633 241.705 703.296 251.655L851.82 162.318 930.951 241.449 841.656 389.928C851.606 408.589 859.805 428.276 866.082 448.817L1034.22 490.668 1034.22 602.597 866.082 644.448C859.805 664.989 851.605 684.675 841.656 703.337L930.951 851.862 851.82 930.997 703.341 841.698C684.68 851.648 664.992 859.847 644.451 866.124L602.601 1034.25 490.672 1034.25 448.821 866.124C428.28 859.846 408.594 851.647 389.931 841.698L241.407 930.997 162.276 851.862 251.571 703.383C241.621 684.721 233.421 665.034 227.145 644.493L59.0601 602.558 59.0601 490.629 227.19 448.778C233.468 428.237 241.667 408.551 251.617 389.889L162.321 241.364 241.452 162.233 389.977 251.528C408.638 241.621 428.326 233.379 448.867 227.102L490.717 58.9717 602.646 58.9717ZM546.616 353.843C440.154 353.843 353.843 440.148 353.843 546.616 353.843 653.079 440.148 739.389 546.616 739.389 653.079 739.389 739.389 653.084 739.389 546.616 739.389 440.154 653.084 353.843 546.616 353.843Z" fill="#E07A5F" fill-rule="evenodd" transform="matrix(1 0 0 1.00036 2515 769.377)"/></g></g></g><path d="M3166.5 1576C2960.77 1576 2794 1409.23 2794 1203.5" stroke="#E07A5F" stroke-width="201.667" stroke-miterlimit="8" fill="none" fill-rule="evenodd"/><g><g><g><path d="M447.974 254.024C427.028 254.027 407.429 264.348 395.579 281.62L239.945 551.181 239.945 551.187C230.913 570.085 231.774 592.219 242.243 610.359 252.848 628.684 271.884 640.525 293.008 641.936L602.931 641.936C624.058 640.528 643.097 628.687 653.702 610.359 664.175 592.219 665.035 570.08 656 551.181L500.702 282.202C488.917 264.612 469.142 254.046 447.969 254.026Z" fill="#E07A5F" transform="matrix(6.12365e-17 1.00007 -1 6.12323e-17 3862.06 1127.23)"/></g></g></g><path d="M0 0 0.000360892 1061.09" stroke="#E07A5F" stroke-width="201.667" stroke-linecap="round" stroke-miterlimit="8" fill="none" fill-rule="evenodd" transform="matrix(1 0 0 -1 1808 1704.09)"/><path d="M2279 1301 2279 1652.72" stroke="#E07A5F" stroke-width="201.667" stroke-miterlimit="8" fill="none" fill-rule="evenodd"/><g clip-path="url(#clip3)"><g clip-path="url(#clip4)"><g><path d="M644.636 227.31C665.185 233.59 684.878 241.792 703.547 251.745L852.125 162.376 931.284 241.535 841.957 390.067C851.911 408.735 860.113 428.43 866.392 448.978L1034.59 490.844 1034.59 602.813 866.392 644.678C860.112 665.227 851.91 684.92 841.957 703.589L931.284 852.167 852.125 931.33 703.593 841.999C684.925 851.953 665.23 860.155 644.682 866.434L602.816 1034.62 490.847 1034.62 448.982 866.434C428.433 860.154 408.74 851.952 390.071 841.999L241.493 931.33 162.334 852.167 251.661 703.635C241.707 684.967 233.505 665.272 227.226 644.724L59.0812 602.773 59.0812 490.805 227.271 448.939C233.552 428.391 241.754 408.697 251.707 390.028L162.379 241.45 241.539 162.291 390.116 251.618C408.785 241.707 428.479 233.462 449.027 227.183L490.893 58.9928 602.862 58.9928ZM546.812 353.969C440.311 353.969 353.969 440.306 353.969 546.812 353.969 653.312 440.306 739.654 546.812 739.654 653.312 739.654 739.654 653.318 739.654 546.812 739.654 440.311 653.318 353.969 546.812 353.969Z" fill="#E07A5F" fill-rule="evenodd" transform="matrix(-1.00083 1.22567e-16 -1.22465e-16 -1 2597.99 1824.62)"/></g></g></g><path d="M1808.01 1313.57C1809.07 1184.62 1914.7 1080.94 2043.93 1082.01 2171.12 1083.06 2274.18 1185.29 2275.98 1312.2" stroke="#E07A5F" stroke-width="201.667" stroke-miterlimit="8" fill="none" fill-rule="evenodd"/><g><g><g><path d="M447.974 254.024C427.028 254.027 407.429 264.348 395.579 281.62L239.945 551.181 239.945 551.187C230.913 570.085 231.774 592.219 242.243 610.359 252.848 628.684 271.884 640.525 293.008 641.936L602.931 641.936C624.058 640.528 643.097 628.687 653.702 610.359 664.175 592.219 665.035 570.08 656 551.181L500.702 282.202C488.917 264.612 469.142 254.046 447.969 254.026Z" fill="#E07A5F" transform="matrix(-1.00007 1.22473e-16 -1.22465e-16 -1 2727.77 2069.06)"/></g></g></g><g><g><g><path d="M447.974 254.024C427.028 254.027 407.429 264.348 395.579 281.62L239.946 551.181 239.946 551.187C230.913 570.086 231.774 592.219 242.244 610.36 252.848 628.684 271.884 640.525 293.008 641.937L602.932 641.937C624.059 640.528 643.098 628.687 653.702 610.36 664.175 592.219 665.036 570.08 656 551.181L500.702 282.202C488.917 264.612 469.143 254.046 447.969 254.026Z" fill="#E07A5F" transform="matrix(1.00007 0 0 1 1359.23 41.9349)"/></g></g></g><g><g><g><path d="M447.974 254.024C427.028 254.027 407.429 264.348 395.579 281.62L239.946 551.181 239.946 551.187C230.913 570.086 231.774 592.219 242.244 610.36 252.848 628.684 271.884 640.525 293.008 641.937L602.932 641.937C624.059 640.528 643.098 628.687 653.702 610.36 664.175 592.219 665.036 570.08 656 551.181L500.702 282.202C488.917 264.612 469.143 254.046 447.969 254.026Z" fill="#E07A5F" transform="matrix(1.00007 0 0 1 2342.23 41.9349)"/></g></g></g></g></svg>