<svg width="1749" height="883" xmlns="http://www.w3.org/2000/svg" xmlns:xlink="http://www.w3.org/1999/xlink" overflow="hidden"><defs><clipPath id="clip0"><rect x="583" y="854" width="1749" height="883"/></clipPath><clipPath id="clip1"><rect x="583" y="1010" width="635" height="494"/></clipPath><clipPath id="clip2"><rect x="583" y="1010" width="635" height="494"/></clipPath><clipPath id="clip3"><rect x="583" y="1010" width="635" height="494"/></clipPath><clipPath id="clip4"><rect x="583" y="1010" width="635" height="494"/></clipPath><clipPath id="clip5"><rect x="870" y="1304" width="198" height="201"/></clipPath><clipPath id="clip6"><rect x="870" y="1304" width="198" height="201"/></clipPath><clipPath id="clip7"><rect x="670" y="1155" width="227" height="201"/></clipPath><clipPath id="clip8"><rect x="670" y="1155" width="227" height="201"/></clipPath></defs><g clip-path="url(#clip0)" transform="translate(-583 -854)"><text fill="#E07A5F" font-family="Calibri,Calibri_MSFontService,sans-serif" font-weight="700" font-size="303" transform="matrix(1 0 0 1 1217.57 1228)">HUMIN<tspan font-size="303" x="0" y="247">LABS</tspan></text><g clip-path="url(#clip1)"><g clip-path="url(#clip2)"><g clip-path="url(#clip3)"><g clip-path="url(#clip4)"><path d="M859.751 423.755 859.29 172.842" stroke="#E07A5F" stroke-width="62.0223" stroke-linecap="round" stroke-miterlimit="8" fill="none" fill-rule="evenodd" transform="matrix(1.00035 0 0 1 96.9051 931.037)"/><path d="M939.868 484.696 1033 484.696" stroke="#E07A5F" stroke-width="62.0223" stroke-miterlimit="8" fill="none" fill-rule="evenodd" transform="matrix(1.00035 0 0 1 96.9051 931.037)"/><g clip-path="url(#clip5)"><g clip-path="url(#clip6)"><path d="M198.255 69.9078C204.574 71.8393 210.631 74.3617 216.373 77.4229L262.067 49.9379 286.412 74.283 258.94 119.963C262.001 125.704 264.523 131.761 266.454 138.081L318.183 150.956 318.183 185.392 266.454 198.268C264.523 204.587 262.001 210.644 258.94 216.385L286.412 262.08 262.067 286.426 216.386 258.953C210.645 262.014 204.588 264.536 198.269 266.467L185.393 318.192 150.958 318.192 138.082 266.467C131.762 264.536 125.706 262.013 119.964 258.953L74.2701 286.426 49.925 262.08 77.3971 216.399C74.3359 210.658 71.8131 204.601 69.8823 198.281L18.1701 185.38 18.1701 150.944 69.8961 138.069C71.8276 131.749 74.3501 125.693 77.4112 119.951L49.9389 74.2568 74.2839 49.9118 119.978 77.3838C125.72 74.3359 131.777 71.8002 138.096 69.8691L150.972 18.1429 185.407 18.1429ZM168.169 108.862C135.416 108.862 108.862 135.414 108.862 168.169 108.862 200.923 135.414 227.477 168.169 227.477 200.923 227.477 227.477 200.925 227.477 168.169 227.477 135.416 200.925 108.862 168.169 108.862Z" fill="#E07A5F" fill-rule="evenodd" transform="matrix(1 0 0 1.00001 870.657 1167.66)"/></g></g><path d="M973.852 484.696C910.58 484.696 859.29 433.406 859.29 370.134" stroke="#E07A5F" stroke-width="62.0223" stroke-miterlimit="8" fill="none" fill-rule="evenodd" transform="matrix(1.00035 0 0 1 96.9051 931.037)"/><path d="M137.783 78.1301C131.341 78.131 125.313 81.3055 121.668 86.6178L73.7998 169.527 73.7998 169.529C71.0219 175.341 71.2867 182.149 74.5066 187.728 77.7684 193.364 83.6233 197.006 90.1204 197.44L185.443 197.44C191.941 197.007 197.797 193.365 201.059 187.728 204.28 182.149 204.545 175.339 201.766 169.527L154.001 86.7968C150.376 81.3867 144.294 78.1369 137.782 78.1307Z" fill="#E07A5F" transform="matrix(6.12535e-17 1 -1.00028 6.1228e-17 1285.09 1277.72)"/><path d="M0 0 0.000110992 326.336" stroke="#E07A5F" stroke-width="62.0223" stroke-linecap="round" stroke-miterlimit="8" fill="none" fill-rule="evenodd" transform="matrix(1.00035 0 0 -1 653.145 1455.13)"/><path d="M700.903 400.12 700.903 508.291" stroke="#E07A5F" stroke-width="62.0223" stroke-miterlimit="8" fill="none" fill-rule="evenodd" transform="matrix(1.00035 0 0 1 96.9051 931.037)"/><g clip-path="url(#clip7)"><g clip-path="url(#clip8)"><path d="M198.257 69.9088C204.577 71.8402 210.633 74.3627 216.375 77.4238L262.07 49.9385 286.415 74.2837 258.942 119.964C262.004 125.706 264.526 131.763 266.457 138.082L318.186 150.958 318.186 185.394 266.457 198.27C264.526 204.589 262.003 210.646 258.942 216.388L286.415 262.083 262.07 286.429 216.389 258.955C210.648 262.017 204.59 264.539 198.271 266.47L185.395 318.196 150.959 318.196 138.084 266.47C131.764 264.539 125.707 262.016 119.966 258.955L74.2708 286.429 49.9255 262.083 77.3979 216.402C74.3366 210.66 71.8141 204.603 69.883 198.284L18.1703 185.382 18.1703 150.946 69.8968 138.07C71.8285 131.751 74.351 125.694 77.4121 119.952L49.9394 74.2575 74.2849 49.9123 119.98 77.3847C125.721 74.3366 131.778 71.8008 138.098 69.8698L150.973 18.1431 185.409 18.1431ZM168.171 108.863C135.417 108.863 108.863 135.415 108.863 168.171 108.863 200.925 135.415 227.479 168.171 227.479 200.925 227.479 227.479 200.927 227.479 168.171 227.479 135.417 200.927 108.863 168.171 108.863Z" fill="#E07A5F" fill-rule="evenodd" transform="matrix(-1.00118 1.22567e-16 -1.22507e-16 -1 896.19 1492.2)"/></g></g><path d="M556.05 403.986C556.376 364.328 588.863 332.441 628.607 332.77 667.724 333.093 699.42 364.534 699.974 403.565" stroke="#E07A5F" stroke-width="62.0223" stroke-miterlimit="8" fill="none" fill-rule="evenodd" transform="matrix(1.00035 0 0 1 96.9051 931.037)"/><path d="M137.774 78.1247C131.332 78.1256 125.304 81.2998 121.66 86.6118L73.7947 169.515 73.7947 169.517C71.0169 175.329 71.2817 182.136 74.5014 187.715 77.763 193.351 83.6175 196.992 90.1141 197.426L185.43 197.426C191.928 196.993 197.783 193.352 201.045 187.715 204.266 182.136 204.53 175.327 201.752 169.515L153.99 86.7907C150.366 81.381 144.284 78.1314 137.772 78.1253Z" fill="#E07A5F" transform="matrix(-1.00042 1.22473e-16 -1.22507e-16 -1 936.117 1567.37)"/><path d="M137.774 78.1247C131.332 78.1256 125.304 81.2998 121.66 86.6118L73.795 169.515 73.795 169.517C71.0169 175.329 71.2817 182.136 74.5017 187.715 77.763 193.351 83.6175 196.992 90.1141 197.427L185.431 197.427C191.928 196.993 197.784 193.352 201.045 187.715 204.266 182.136 204.531 175.327 201.752 169.515L153.99 86.7907C150.366 81.381 144.284 78.1314 137.772 78.1253Z" fill="#E07A5F" transform="matrix(1.00042 0 0 1 515.079 943.934)"/><path d="M137.774 78.1247C131.332 78.1256 125.304 81.2998 121.66 86.6118L73.795 169.515 73.795 169.517C71.0169 175.329 71.2817 182.136 74.5017 187.715 77.763 193.351 83.6175 196.992 90.1141 197.427L185.431 197.427C191.928 196.993 197.784 193.352 201.045 187.715 204.266 182.136 204.531 175.327 201.752 169.515L153.99 86.7907C150.366 81.381 144.284 78.1314 137.772 78.1253Z" fill="#E07A5F" transform="matrix(1.00042 0 0 1 817.504 943.934)"/></g></g></g></g></g></svg>