<?xml version="1.0" encoding="UTF-8"?>
<svg width="1200pt" height="1200pt" version="1.1" viewBox="0 0 1200 1200" xmlns="http://www.w3.org/2000/svg">
 <path d="m420.37 435.84c0 8.2031-6.6562 14.859-14.859 14.859s-14.859-6.6562-14.859-14.859v-286.55c0-61.828 50.531-112.36 112.36-112.36h472.64c4.0781 0.046875 7.7344 1.5469 10.594 4.4531l172.36 172.36c2.9062 2.8594 4.4531 6.6094 4.4531 10.781v705.05c0 61.828-50.531 112.36-112.36 112.36h-359.53c-8.2031 0-14.859-6.6562-14.859-14.859 0-8.2031 6.6562-14.859 14.859-14.859h359.53c45.422 0 82.688-37.219 82.688-82.688l-0.046875-690.32h-157.69c-8.2031 0-14.859-6.6562-14.859-14.859v-157.69h-457.74c-45.422 0-82.688 37.219-82.688 82.688zm-117.56 399.61 41.156 41.156c5.8125 5.8125 15.188 5.8125 21 0l86.344-86.344c5.8125-5.8125 5.8125-15.188 0-21s-15.188-5.8125-21 0l-75.844 75.844-30.656-30.656c-5.8125-5.8125-15.188-5.8125-21 0-5.7656 5.8125-5.7656 15.188 0 21zm74.297-172.92c-88.594 0-160.4 71.812-160.4 160.4s71.812 160.4 160.4 160.4c88.594 0 160.4-71.812 160.4-160.4-0.046874-88.594-71.859-160.4-160.4-160.4zm92.391 67.969c-51.047-51.047-133.82-51.047-184.87 0s-51.047 133.82 0 184.87 133.82 51.047 184.87 0c51.047-51.094 51.047-133.82 0-184.87zm-19.359-163.87-5.1094-38.203c-3.5156-26.25-25.688-45.656-52.078-45.656h-31.828c-26.344 0-48.562 19.406-52.031 45.656l-5.1094 38.203c-19.781 5.625-38.578 13.406-56.438 23.391l-30.703-23.438c-21-16.031-50.391-14.109-69.047 4.5938l-22.5 22.5c-18.656 18.656-20.625 48.047-4.5938 69.047l23.438 30.703c-9.9844 17.859-17.766 36.656-23.391 56.484l-38.203 5.1094c-26.25 3.5156-45.656 25.688-45.656 52.031v31.828c0 26.344 19.406 48.562 45.656 52.031l38.203 5.1094c5.625 19.781 13.406 38.578 23.391 56.484l-23.438 30.656c-16.031 21-14.109 50.391 4.5938 69.047l22.5 22.5c18.656 18.656 48.047 20.625 69.047 4.5938l30.703-23.438c17.859 9.9844 36.656 17.766 56.438 23.391l5.1094 38.203c3.5156 26.25 25.688 45.656 52.031 45.656h31.828c26.344 0 48.562-19.406 52.078-45.656l5.1094-38.203c19.828-5.625 38.578-13.406 56.484-23.391l30.656 23.438c21 16.031 50.344 14.109 69.047-4.5938l22.5-22.5c18.656-18.656 20.625-48.047 4.5938-69.047l-23.438-30.703c9.9844-17.859 17.766-36.656 23.391-56.438l38.203-5.1094c26.25-3.5156 45.656-25.688 45.656-52.031v-31.828c0-26.344-19.406-48.562-45.656-52.031l-38.203-5.1094c-5.625-19.828-13.406-38.578-23.391-56.484l23.438-30.656c16.031-21 14.109-50.391-4.5938-69.047l-22.5-22.5c-18.656-18.656-48.047-20.625-69.047-4.5938l-30.703 23.438c-17.859-9.9844-36.609-17.812-56.438-23.438zm17.531 37.406c-11.062-4.5938-22.453-8.3438-34.125-11.203-5.9062-1.3125-10.641-6.1875-11.438-12.516l-6.4219-48.094c-1.5469-11.438-11.062-19.781-22.688-19.781h-31.828c-11.672 0-21.188 8.3438-22.688 19.781l-6.375 47.766c-0.65625 6-5.0156 11.25-11.25 12.75-22.125 5.3906-47.156 15.422-66.375 27.469-5.1094 3.2812-11.906 3.2344-17.016-0.65625l-38.578-29.438c-9.1875-7.0312-21.844-6.2344-30.094 2.0156l-22.5 22.5c-8.2031 8.2031-9.0469 20.859-2.0156 30.094l29.391 38.438c3.6562 4.7344 4.2656 11.391 0.9375 16.828-12 19.688-22.359 43.922-27.609 66.469-1.3125 5.9062-6.1875 10.641-12.516 11.438l-48.047 6.4219c-11.438 1.5469-19.781 11.062-19.781 22.688v31.828c0 11.672 8.3438 21.188 19.781 22.688l47.766 6.375c6 0.65625 11.25 5.0156 12.75 11.25 5.3906 22.172 15.469 47.156 27.469 66.375 3.2812 5.1094 3.2344 11.906-0.65625 17.016l-29.438 38.578c-7.0312 9.1875-6.1875 21.844 2.0156 30.094l22.5 22.5c8.2031 8.2031 20.859 9.0469 30.094 2.0156l38.438-29.391c4.7344-3.6562 11.391-4.2656 16.781-0.9375 19.688 12 43.922 22.359 66.422 27.609 5.9062 1.3125 10.641 6.1875 11.438 12.516l6.4219 48.094c1.5469 11.438 11.062 19.781 22.688 19.781h31.828c11.672 0 21.188-8.3438 22.688-19.781l6.375-47.766c0.65625-6 5.0156-11.25 11.25-12.75 22.172-5.3906 47.156-15.422 66.375-27.469 5.1094-3.2812 11.906-3.2344 17.016 0.65625l38.531 29.438c9.1875 7.0312 21.844 6.1875 30.094-2.0156l22.5-22.5c8.25-8.25 9.0469-20.906 2.0156-30.094l-29.391-38.438c-3.6562-4.7344-4.2656-11.391-0.9375-16.781 12-19.688 22.312-43.922 27.609-66.422 1.3125-5.9062 6.1875-10.641 12.516-11.438l48.094-6.4219c11.438-1.5469 19.781-11.062 19.781-22.688v-31.828c0-11.672-8.3438-21.188-19.781-22.688l-47.766-6.375c-6.0469-0.65625-11.25-5.0156-12.75-11.25-5.3906-22.172-15.422-47.156-27.469-66.375-3.2812-5.1094-3.2344-11.906 0.65625-17.016l29.438-38.531c7.0312-9.1875 6.2344-21.844-2.0156-30.094l-22.5-22.5c-8.25-8.25-20.906-9.0469-30.094-2.0156l-38.438 29.391c-4.7344 3.6562-11.391 4.2656-16.781 0.9375-10.219-6.375-21-11.859-32.297-16.547zm62.766-450.47c-27.797 0-50.531 22.688-50.531 50.531v44.578c0 27.797 22.688 50.531 50.531 50.531h306.74c27.797 0 50.531-22.688 50.531-50.531v-44.578c0-27.797-22.688-50.531-50.531-50.531zm306.79 29.719h-306.79c-11.438 0-20.812 9.375-20.812 20.812v44.578c0 11.438 9.4219 20.812 20.812 20.812h306.74c11.438 0 20.812-9.375 20.812-20.812v-44.578c0.046875-11.438-9.375-20.812-20.766-20.812zm275.11 26.203-121.82-121.82v121.87zm-180 673.97 37.453 37.453c5.8125 5.8125 15.188 5.8125 21 0l78.609-78.609c5.8125-5.8125 5.8125-15.188 0-21s-15.188-5.8125-21 0l-68.109 68.109-26.953-26.953c-5.8125-5.8125-15.188-5.8125-21 0s-5.8125 15.188 0 21zm-69.609-237.84h-175.26c-8.2031 0-14.859 6.6562-14.859 14.859 0 8.2031 6.6562 14.859 14.859 14.859h175.26c8.2031 0 14.859-6.6562 14.859-14.859 0-8.25-6.6562-14.859-14.859-14.859zm69.609 27.188 37.453 37.453c5.8125 5.8125 15.188 5.8125 21 0l78.609-78.609c5.8125-5.8125 5.8125-15.188 0-21s-15.188-5.8125-21 0l-68.109 68.109-26.953-26.953c-5.8125-5.8125-15.188-5.8125-21 0-5.8125 5.7656-5.8125 15.188 0 21zm-69.609-237.89h-367.92c-8.2031 0-14.859 6.6562-14.859 14.859s6.6562 14.859 14.859 14.859h367.92c8.2031 0 14.859-6.6562 14.859-14.859s-6.6562-14.859-14.859-14.859zm69.609 27.234 37.453 37.453c5.8125 5.8125 15.188 5.8125 21 0l78.609-78.609c5.8125-5.8125 5.8125-15.188 0-21s-15.188-5.8125-21 0l-68.109 68.109-26.953-26.953c-5.8125-5.8125-15.188-5.8125-21 0-5.8125 5.7656-5.8125 15.188 0 21zm-69.609 394.13h-103.08c-8.2031 0-14.859 6.6562-14.859 14.859s6.6562 14.859 14.859 14.859h103.08c8.2031 0 14.859-6.6562 14.859-14.859 0-8.25-6.6562-14.859-14.859-14.859z" fill-rule="evenodd"/>
</svg>
