<svg width="295" height="267" xmlns="http://www.w3.org/2000/svg" xmlns:xlink="http://www.w3.org/1999/xlink" overflow="hidden"><defs><clipPath id="clip0"><rect x="451" y="277" width="295" height="267"/></clipPath></defs><g clip-path="url(#clip0)" transform="translate(-451 -277)"><path d="M67.133 287.975C59.7235 280.609 53.6611 274.024 53.6611 273.337 53.6611 272.658 58.1898 265.51 63.7249 257.465 69.2599 249.419 73.7814 242.303 73.7724 241.651 73.7634 240.996 71.229 234.195 68.1401 226.53 63.6456 215.38 62.1417 212.418 60.6086 211.7 59.5559 211.215 51.3775 209.493 42.436 207.914 33.4948 206.313 25.7438 204.681 25.2116 204.264 24.484 203.706 24.2462 198.857 24.256 184.826 24.2625 174.553 24.5228 165.754 24.8357 165.271 25.1486 164.786 33.2426 162.943 42.8224 161.162 52.4023 159.392 60.9588 157.64 61.8366 157.284 62.9718 156.823 65.0405 152.84 68.9975 143.495 72.058 136.267 74.5619 129.674 74.5619 128.844 74.5619 128.02 69.9864 120.738 64.3943 112.678 58.802 104.618 54.0495 97.3805 53.8333 96.5947 53.5399 95.5274 56.8694 91.729 66.896 81.6922 74.2965 74.2822 80.723 68.2184 81.1773 68.2184 81.6309 68.2184 88.9508 72.97 97.4424 78.7743 105.934 84.5786 113.474 89.4927 114.198 89.6916 115.573 90.0797 140.071 80.3533 141.669 78.7937 142.406 78.066 146.075 60.4179 149.214 42.486 149.585 40.3758 150.182 39.4759 151.428 39.1703 152.367 38.9278 161.323 38.855 171.329 38.9278L189.521 39.1703 190.435 42.8741C190.937 44.9115 192.618 53.6192 194.171 62.2274 195.723 70.8356 197.401 78.2795 197.902 78.7719 198.969 79.8149 223.505 89.8759 224.999 89.8759 225.557 89.8759 231.39 86.1891 237.959 81.6849 244.529 77.1783 251.648 72.303 253.78 70.8477 255.912 69.3924 258.008 68.2014 258.435 68.2014 258.862 68.2014 265.265 74.2628 272.666 81.6728 282.62 91.6417 286.023 95.5177 285.744 96.5752 285.526 97.3514 280.784 104.672 275.183 112.819 269.58 120.964 264.998 128.182 264.998 128.854 264.998 130.188 275.622 155.644 276.636 156.738 276.978 157.102 285.385 158.945 295.32 160.796 305.255 162.664 313.817 164.349 314.351 164.551 315.088 164.842 315.318 169.487 315.318 184.202 315.318 198.707 315.076 203.672 314.351 204.244 313.819 204.657 306.067 206.306 297.125 207.895 288.184 209.471 280.029 211.189 279.003 211.681 277.543 212.384 275.911 215.603 271.494 226.511 268.389 234.175 265.833 240.901 265.811 241.459 265.789 242.017 270.303 249.104 275.838 257.208 281.373 265.309 285.902 272.53 285.902 273.253 285.902 273.98 279.838 280.592 272.428 287.958 259.854 300.457 258.842 301.289 257.225 300.423 256.271 299.914 249.48 295.354 242.133 290.292 234.786 285.23 228.255 281.087 227.621 281.087 226.985 281.087 223.474 282.688 219.815 284.626 216.156 286.566 212.847 287.971 212.461 287.73 212.076 287.488 209.938 282.853 207.711 277.42 205.484 271.986 199.697 257.998 194.85 246.336 190.003 234.675 186.037 224.689 186.037 224.148 186.037 223.615 188.22 221.606 190.888 219.702 200.28 213.001 204.738 207.383 208.142 197.96 211.895 187.571 211.249 177.37 206.17 166.843 199.562 153.146 185.056 144.067 169.78 144.067 152.464 144.067 136.152 156.064 131.062 172.54 128.969 179.317 128.969 190.099 131.062 196.876 133.805 205.755 140.446 214.136 149.846 220.58 151.869 221.963 153.523 223.559 153.523 224.114 153.523 224.672 151.464 230.142 148.946 236.271 133.557 273.726 128.077 286.717 127.358 287.435 126.793 287.992 124.506 287.168 119.821 284.667 116.121 282.702 112.582 281.087 111.956 281.087 111.33 281.087 104.838 285.213 97.5285 290.255 90.2189 295.298 83.4204 299.856 82.4211 300.387 80.6941 301.309 79.9303 300.678 67.1318 287.958Z" fill="#E07A5F" transform="matrix(1.00238 0 0 1 427.639 241.712)"/></g></svg>